<?xml version="1.0" encoding="utf-8"?>
<!-- Generator: Adobe Illustrator 15.1.0, SVG Export Plug-In  -->
<!DOCTYPE svg PUBLIC "-//W3C//DTD SVG 1.1//EN" "http://www.w3.org/Graphics/SVG/1.1/DTD/svg11.dtd" [
	<!ENTITY ns_flows "http://ns.adobe.com/Flows/1.0/">
]>
<svg version="1.1"
	 xmlns="http://www.w3.org/2000/svg" xmlns:xlink="http://www.w3.org/1999/xlink" xmlns:a="http://ns.adobe.com/AdobeSVGViewerExtensions/3.0/"
	 x="0px" y="0px" width="97px" height="134px" viewBox="0 0 97 134" enable-background="new 0 0 97 134" xml:space="preserve">
<defs>
</defs>
<path fill-rule="evenodd" clip-rule="evenodd" fill="#FFFFFF" d="M19.645,0c5.005,0,10.009,0,15.014,0c0,2.037,0,4.075,0,6.112
	c-2.615,0.307-5.8,0.046-8.636,0.133c0.173,1.996-0.349,4.689,0.266,6.244c2.746,0,5.492,0,8.238,0
	c0.304,1.688,0.048,3.938,0.132,5.846c-5.004,0-10.009,0-15.014,0C19.645,12.224,19.645,6.112,19.645,0z"/>
<path fill-rule="evenodd" clip-rule="evenodd" fill="#FFFFFF" d="M40.903,0c4.96,0,9.921,0,14.881,0
	c-0.085,2.13,0.172,4.603-0.133,6.511c-1.506,0-3.012,0-4.518,0c-0.325,0.015-0.028,0.439,0.133,0.398
	c1.365,1.867,2.774,3.691,4.251,5.447c0.575,1.508,0.122,4.042,0.266,5.979c-4.828,0-9.655,0-14.483,0c0-0.043,0-0.088,0-0.133
	c0.084-1.863-0.171-4.068,0.133-5.713c1.506,0,3.012,0,4.518,0c0.354-0.235-0.313-0.562-0.398-0.797
	c-1.455-2.177-2.939-4.324-4.518-6.378C40.732,3.802,40.987,1.732,40.903,0z"/>
<path fill-rule="evenodd" clip-rule="evenodd" fill="#FFFFFF" d="M61.764,0c4.96,0,9.92,0,14.881,0c0,2.126,0,4.252,0,6.378
	c-1.285,0.309-3.144,0.045-4.65,0.133c-0.037,0.303,0.032,0.5,0.266,0.531c1.229,1.693,2.511,3.336,3.854,4.916
	c0.087,0.355,0.38,0.506,0.531,0.797c0,1.86,0,3.721,0,5.58c-4.827,0-9.655,0-14.482,0c0.084-1.908-0.172-4.157,0.133-5.846
	c1.506,0,3.012,0,4.518,0c0.35-0.148-0.178-0.515-0.266-0.664c-1.533-2.32-3.149-4.558-4.783-6.776
	C61.764,3.366,61.764,1.683,61.764,0z"/>
<path fill-rule="evenodd" clip-rule="evenodd" fill="#FFFFFF" d="M34.791,12.622c0.222,1.596,0.222,4.118,0,5.713
	C34.791,16.431,34.791,14.526,34.791,12.622z"/>
<path fill-rule="evenodd" clip-rule="evenodd" fill="#FFFFFF" d="M55.917,12.755c0.221,1.551,0.221,4.029,0,5.58
	C55.917,16.476,55.917,14.615,55.917,12.755z"/>
<path fill-rule="evenodd" clip-rule="evenodd" fill="#FFFFFF" d="M62.029,12.755c0,1.816,0,3.633,0,5.447
	C61.808,16.696,61.808,14.263,62.029,12.755z"/>
<path fill-rule="evenodd" clip-rule="evenodd" fill="#FFFFFF" d="M55.785,18.469c-4.784-0.089-9.921,0.177-14.483-0.134
	c4.828,0,9.655,0,14.483,0C55.785,18.38,55.785,18.425,55.785,18.469z"/>
<path fill-rule="evenodd" clip-rule="evenodd" fill="#FFFFFF" d="M19.378,0c0.044,0,0.089,0,0.133,0c0,6.112,0,12.224,0,18.335
	c4.784,0.311,10.142,0.046,15.146,0.134c0.044,0,0.089,0,0.133,0c-4.827,0.31-10.23,0.044-15.279,0.133
	C19.202,12.666,19.467,6.157,19.378,0z"/>
<path fill-rule="evenodd" clip-rule="evenodd" fill="#FFFFFF" d="M26.288,12.489c-0.025-0.107-0.133-0.133-0.133-0.266
	c2.572,0.396,6.066-0.131,8.636,0.266c-0.088,0-0.177,0-0.265,0C31.78,12.489,29.034,12.489,26.288,12.489z"/>
<path fill-rule="evenodd" clip-rule="evenodd" fill="#FFFFFF" d="M55.917,18.469c-4.65,0.31-9.876,0.044-14.749,0.133
	c-0.22-1.779-0.22-4.466,0-6.245c1.119-0.311,5.026,0.691,4.385-0.664c0.085,0.235,0.752,0.562,0.398,0.797
	c-1.506,0-3.012,0-4.518,0c-0.044,0-0.088,0-0.133,0c-0.216,1.6-0.225,4.115,0,5.713c0,0.045,0,0.09,0,0.133
	c4.562,0.311,9.699,0.045,14.483,0.134C55.829,18.469,55.873,18.469,55.917,18.469z"/>
<path fill-rule="evenodd" clip-rule="evenodd" fill="#FFFFFF" d="M62.029,12.489c1.241-0.397,3.409,0.132,4.65-0.266
	c-0.155-0.022-0.145-0.21-0.133-0.398c0.087,0.149,0.616,0.516,0.266,0.664c-1.506,0-3.012,0-4.518,0
	C62.206,12.489,62.118,12.489,62.029,12.489z"/>
<path fill-rule="evenodd" clip-rule="evenodd" fill="#FFFFFF" d="M76.113,11.958c1.468,0.885,0.653,4.743,0.665,6.644
	c-4.873-0.089-10.098,0.177-14.749-0.133c0.044,0,0.088,0,0.133,0c4.828,0,9.655,0,14.482,0c0.217-1.601,0.225-4.114,0-5.714
	C76.494,12.464,76.2,12.313,76.113,11.958z"/>
<path fill-rule="evenodd" clip-rule="evenodd" fill="#FFFFFF" d="M19.512,0c0.044,0,0.088,0,0.133,0c0,6.112,0,12.224,0,18.335
	c5.005,0,10.009,0,15.014,0c0,0.045,0,0.09,0,0.134c-5.005-0.088-10.362,0.177-15.146-0.134C19.512,12.224,19.512,6.112,19.512,0z"
	/>
<path fill-rule="evenodd" clip-rule="evenodd" fill="#FFFFFF" d="M34.658,0c0.044,0,0.089,0,0.133,0c0,2.037,0,4.075,0,6.112
	c-2.354,0.613-5.841,0.094-8.636,0.266c0,1.948,0,3.897,0,5.846c0,0.133,0.108,0.158,0.133,0.266
	c-0.615-1.555-0.092-4.248-0.266-6.244c2.836-0.087,6.021,0.174,8.636-0.133C34.658,4.075,34.658,2.037,34.658,0z"/>
<path fill-rule="evenodd" clip-rule="evenodd" fill="#FFFFFF" d="M55.519,12.356c0.191,0.074,0.324,0.207,0.399,0.398
	c0,1.86,0,3.721,0,5.58c0,0.045,0,0.09,0,0.134c-0.044,0-0.089,0-0.133,0c0-0.044,0-0.089,0-0.134
	C55.64,16.398,56.093,13.864,55.519,12.356z"/>
<path fill-rule="evenodd" clip-rule="evenodd" fill="#FFFFFF" d="M41.302,18.202c-0.225-1.598-0.216-4.113,0-5.713
	c0.044,0,0.089,0,0.133,0C41.13,14.134,41.386,16.339,41.302,18.202z"/>
<path fill-rule="evenodd" clip-rule="evenodd" fill="#FFFFFF" d="M76.645,12.755c0.225,1.6,0.217,4.113,0,5.714
	c-4.827,0-9.655,0-14.482,0c0-0.044,0-0.089,0-0.134c4.828,0,9.655,0,14.482,0C76.645,16.476,76.645,14.615,76.645,12.755z"/>
<path fill-rule="evenodd" clip-rule="evenodd" fill="#FFFFFF" d="M62.029,12.489c0.088,0,0.177,0,0.266,0
	c-0.305,1.688-0.048,3.938-0.133,5.846c0,0.045,0,0.09,0,0.134c-0.044,0-0.088,0-0.133,0c0-0.089,0-0.177,0-0.267
	c0-1.814,0-3.631,0-5.447C62.029,12.667,62.029,12.578,62.029,12.489z"/>
<path fill-rule="evenodd" clip-rule="evenodd" fill="#FFFFFF" d="M34.526,12.489c0.088,0,0.177,0,0.265,0c0,0.045,0,0.089,0,0.133
	c0,1.904,0,3.809,0,5.713c0,0.045,0,0.09,0,0.134c-0.044,0-0.088,0-0.133,0c0-0.044,0-0.089,0-0.134
	C34.574,16.427,34.83,14.178,34.526,12.489z"/>
<path fill="#FFFFFF" d="M0,24.084l7.839,98.986l40.924,11.428l39.595-11.428l8.37-98.986H0z M78.72,57.152L50.505,68.637
	l26.089,0.076l-3.321,37.336l-24.08,7.338l-25.612-7.072L21.985,87.58l11.957-0.006l1.064,9.041l13.686,3.271l13.552-2.74
	l1.595-16.078L21.454,80.67L19.9,69.699l28.525-12.414L19.461,57.02l-1.853-11.611l61.51-0.213L78.72,57.152z"/>
</svg>
