<?xml version="1.0" encoding="utf-8"?>
<!-- Generator: Adobe Illustrator 15.1.0, SVG Export Plug-In  -->
<!DOCTYPE svg PUBLIC "-//W3C//DTD SVG 1.1//EN" "http://www.w3.org/Graphics/SVG/1.1/DTD/svg11.dtd" [
	<!ENTITY ns_flows "http://ns.adobe.com/Flows/1.0/">
]>
<svg version="1.1"
	 xmlns="http://www.w3.org/2000/svg" xmlns:xlink="http://www.w3.org/1999/xlink" xmlns:a="http://ns.adobe.com/AdobeSVGViewerExtensions/3.0/"
	 x="0px" y="0px" width="100px" height="141px" viewBox="0 0 100 141" enable-background="new 0 0 100 141" xml:space="preserve">
<defs>
</defs>
<path fill="#FFFFFF" d="M0,26.742l9.18,102.639l40.888,11.959l41.443-11.404l8.902-102.915L0,26.742z M80.036,58.542l-48.538-0.329
	l1.036,13.176l45.833,0.504l-3.895,39.219l-25.034,6.955l-26.424-7.512l-1.391-19.469h12.516l0.835,8.9l14.464,4.449l13.908-3.894
	l1.112-15.854L20.79,83.852l-2.911-37.381l62.713,0.11L80.036,58.542z"/>
<path fill="#FFFFFF" d="M33.014,17.219h-4.325V9.586h-5.886v7.633h-4.325V0h4.325v6.303h5.886V0h4.325V17.219z"/>
<path fill="#FFFFFF" d="M39.882,17.219V3.284h-5.088V0h14.5v3.284h-5.088v13.935H39.882z"/>
<path fill="#FFFFFF" d="M68.664,17.219h-4.302V5.805l-3.134,7.366H58.28l-3.134-7.366v11.414h-4.07V0h4.984l3.816,8.5L63.68,0h4.984
	V17.219z"/>
<path fill="#FFFFFF" d="M83.72,17.219H72.226V0h4.325v13.934h7.169V17.219z"/>
</svg>
