<?xml version="1.0" encoding="utf-8"?>
<!-- Generator: Adobe Illustrator 15.1.0, SVG Export Plug-In  -->
<!DOCTYPE svg PUBLIC "-//W3C//DTD SVG 1.1//EN" "http://www.w3.org/Graphics/SVG/1.1/DTD/svg11.dtd" [
	<!ENTITY ns_flows "http://ns.adobe.com/Flows/1.0/">
]>
<svg version="1.1"
	 xmlns="http://www.w3.org/2000/svg" xmlns:xlink="http://www.w3.org/1999/xlink" xmlns:a="http://ns.adobe.com/AdobeSVGViewerExtensions/3.0/"
	 x="0px" y="0px" width="108px" height="108px" viewBox="0 0 108 108" enable-background="new 0 0 108 108" xml:space="preserve">
<defs>
</defs>
<path fill-rule="evenodd" clip-rule="evenodd" fill="#FFFFFF" d="M0.235,0c35.908,0,71.814,0,107.723,0c0,35.984,0,71.965,0,107.948
	c-35.983,0-71.965,0-107.948,0c0-35.757,0-71.516,0-107.272C-0.009,0.355-0.027,0.038,0.235,0z M71.975,52.625
	c-0.12-0.324,0.876-0.549,0.225-0.674c-0.882,0.917-2.119,1.479-2.474,2.923c-0.562,1.013-1.055,2.094-1.574,3.148
	c-0.444,0.53-0.53,1.419-0.674,2.249c0,0.3,0,0.6,0,0.899c-0.075,0-0.15,0-0.225,0c-0.346-1.48-0.346,3.954,0,2.474
	c0.075,0,0.15,0,0.225,0c-0.023,1.447,0.114,2.734,0.674,3.599c0.262,0.038,0.245,0.355,0.225,0.675
	c0.36,0.689,0.252,1.846,1.125,2.023c0,0.075,0,0.15,0,0.225c0.79,1.685,1.808,3.141,3.598,3.824
	c0.457,0.668,1.634,0.614,2.024,1.35c-0.432,0.373,1.093,0.693,1.574,0.898c0.31-0.01,0.494,0.106,0.675,0.226
	c0.308,0.591,0.96,0.839,1.799,0.899c0.913,0.812,2.261,1.188,3.598,1.574c0.075,0,0.15,0,0.225,0
	c1.12,0.829,2.344,1.554,3.823,2.023c0.493,0.482,1.25,0.7,1.574,1.35c0.429,0.546,0.589,1.359,0.9,2.024
	c-0.519,0.605-0.08,2.169-0.225,3.148c0,0.075,0,0.149,0,0.225c-0.886,0.238-1.211,1.037-1.799,1.574
	c-0.245,0.504-1.104,0.396-1.349,0.899c-0.075,0-0.15,0-0.225,0c-1.501,0.147-3.595-0.297-4.723,0.226
	c-0.998,0.023-1.32-0.63-2.474-0.45c-0.075,0-0.15,0-0.225,0c-0.733-0.391-1.104-1.146-2.024-1.35
	c-1.059-0.965-1.908-2.141-3.148-2.924c-0.462-0.212-0.19-1.158-0.899-1.124c-2.514,1.534-4.943,3.153-7.646,4.498
	c0.076,1.198,1.089,1.46,1.35,2.474c0.831,2.618,3.165,3.731,5.397,4.947c0.075,0,0.15,0,0.225,0
	c0.486,1.088,1.947,1.201,3.148,1.574c0.288,0.013,0.312,0.288,0.675,0.226c1.391,0.782,3.418,0.929,5.397,1.124
	c0.831,0.374,3.217,0.374,4.048,0c0.137-0.013,0.266-0.033,0.225-0.225c0.704-0.046,1.651,0.151,2.024-0.226
	c1.058-0.066,2.443,0.195,2.699-0.674c0.075,0,0.15,0,0.225,0c1.5-0.225,2.447-1.002,3.599-1.574c1.316-0.04,4.36-3.271,3.148-3.148
	c0.839-1.11,1.588-2.311,2.024-3.823c0.887,0.137,0.264-1.235,0.45-1.8c0-0.075,0-0.149,0-0.225
	c0.137-0.013,0.266-0.033,0.225-0.225c0.796-0.143,0.475-4.36,0.225-3.374c-0.075,0-0.15,0-0.225,0
	c-0.129-0.395,0.271-1.321-0.225-1.349c0-0.075,0-0.15,0-0.226c0.101-1.899-0.405-3.193-1.349-4.048c0-0.075,0-0.149,0-0.225
	c-0.002-0.822-0.444-1.205-0.9-1.574c-0.755-1.269-1.667-2.381-3.148-2.923c-0.75-0.45-1.22-1.18-2.249-1.35
	c-0.945-1.68-3.047-2.201-4.947-2.924c-0.917-0.058-1.111-0.839-2.249-0.675c-0.849,0.099-1.056-0.444-1.574-0.675
	c0-0.226,0.182-0.268,0.225-0.449c-1.323-0.252-1.929-1.221-3.374-1.35c-0.427-0.342-1.985-2.321-1.574-1.35
	c-1.965-2.31-0.49-6.461,2.024-6.972c1.5,0,2.999,0,4.498,0c0.559-0.034,0.696,0.354,1.124,0.45c1.062,1.188,1.94,2.558,3.374,3.373
	c0.338-0.337,0.947-0.402,1.125-0.899c0.583-0.242,0.836-0.813,1.574-0.899c0.481-0.354,2.139-0.697,1.799-1.125
	c0.092-0.283,0.29-0.459,0.674-0.449c0.742-0.383,1.366-0.883,2.249-1.125c0.033-0.558,0.042-1.092-0.45-1.124
	c-0.589-0.161-0.215-1.284-0.899-1.35c-0.806-1.368-1.88-2.468-3.374-3.148c-0.075,0-0.15,0-0.225,0c0-0.075,0-0.15,0-0.225
	c-0.451-0.449-0.887-0.912-1.799-0.899c-0.31,0.01-0.494-0.106-0.675-0.225c-0.587-0.913-2.021-0.979-3.374-1.125
	c-1.219-0.808-4.729-0.516-6.297-0.225c0.175,0.05,0.444,0.006,0.45,0.225c-0.622,0.202-2.111-0.463-2.024,0.449
	c-0.824-0.074-1.25,0.25-1.799,0.45c-0.891-0.066-1.375,0.274-1.799,0.675c0.075,0,0.15,0,0.225,0
	C73.393,51.193,72.781,52.007,71.975,52.625z M58.932,85.01c0.375-11.32,0.374-24.213,0-35.533c-3.012-0.373-7.558-0.373-10.57,0
	c0,12.294,0,24.588,0,36.882c0.181,0.78-0.334,0.864-0.225,1.574c-0.839,0.961-1.575,2.023-2.924,2.475
	c-1.819,0.105-3.774,0.538-4.947-0.45c-0.681-0.968-1.416-1.883-2.474-2.474c-0.002-0.447-0.613-0.286-0.45-0.899
	c-0.269-1.611-1.986-1.058-2.474,0c-1.404,0.845-2.845,1.652-4.273,2.474c-0.677,0.231-2.188,0.799-1.799,1.35
	c0.202,1.072,1.12,1.429,1.35,2.474c0.584,1.814,1.783,3.014,3.598,3.598c0.614-0.163,0.453,0.447,0.899,0.45
	c0.379,0.67,1.113,0.986,2.024,1.124c0.29,0.61,1.118,0.682,2.024,0.675c0.936,0.488,2.237,0.611,3.598,0.675
	c0.461,0.373,2.462,0.373,2.923,0c0.175-0.05,0.444-0.006,0.45-0.225c0.15,0,0.3,0,0.45,0c0.683-0.142,1.937,0.288,2.249-0.226
	c1.389-0.109,2.461-0.537,3.149-1.349c0.287-0.013,0.311-0.288,0.674-0.226c0.615-0.209,0.959-0.689,1.574-0.899
	c0.93-0.42,1.604-1.095,2.024-2.023c0.209-0.615,0.69-0.959,0.899-1.574c0.059-0.691,0.488-1.012,0.675-1.574
	c0.754-0.07,0.63-1.02,0.674-1.8c0-0.149,0-0.299,0-0.449c0.814-0.311,0.588-1.661,0.675-2.699c0-0.149,0-0.299,0-0.449
	C59.04,85.867,58.913,85.365,58.932,85.01z"/>
</svg>
