<?xml version="1.0" encoding="utf-8"?>
<!-- Generator: Adobe Illustrator 15.1.0, SVG Export Plug-In  -->
<!DOCTYPE svg PUBLIC "-//W3C//DTD SVG 1.1//EN" "http://www.w3.org/Graphics/SVG/1.1/DTD/svg11.dtd" [
	<!ENTITY ns_flows "http://ns.adobe.com/Flows/1.0/">
]>
<svg version="1.1"
	 xmlns="http://www.w3.org/2000/svg" xmlns:xlink="http://www.w3.org/1999/xlink" xmlns:a="http://ns.adobe.com/AdobeSVGViewerExtensions/3.0/"
	 x="0px" y="0px" width="501px" height="507px" viewBox="0 0 501 507" enable-background="new 0 0 501 507" xml:space="preserve">
<defs>
</defs>
<path fill="#FFFFFF" d="M501.03,252.78c0.29,24.9-3.98,47.92-12,69.99c-7.13,19.58-15.17,40.57-35,48.99
	c-22.81,9.689-71.37,4-100.99,4c-35.04,0-69.13-0.83-102.98,1c0,4,0,8,0,12c36.14,4.62,80.98,0.7,120.98,2
	c0.11,33.31,3.34,62.979-12,80.99c-44.8,52.619-205.17,46.68-226.97-17c-5-14.61-2-46.04-2-70.99c0-29.96-3.89-62.28,3-81.99
	c5.52-15.78,19.64-33.14,38-38.99c22.18-7.069,49.46-3,73.99-3c25.28,0,51.61,2.721,75.99,0c31.93-3.569,60.91-32.819,64.99-64.989
	c2.44-19.261-1.74-32.381,0-62c-0.09-1.421-0.16-2.83,1-3c23.19,1.529,47.8-3.19,64.99,3
	C488.96,146.091,500.44,203.44,501.03,252.78z M319.05,467.751c30.23-0.511,28.45-52.511-6-44.99
	C286.47,428.561,293.49,468.181,319.05,467.751z"/>
<path fill="#FFFFFF" d="M371.041,123.791c0,24.899,2.88,49.189,0,70c-3.65,26.47-27.69,48.09-50.99,50.989
	c-42.7,5.311-91.92-3.239-133.98,0c-59.87,4.61-78.93,54.53-72,130.98c-43.23,3.01-73.01-1.69-89.98-24.99
	c-27.77-38.11-32.11-129.25-10-176.979c10.22-22.07,32.1-41.28,62.99-44c50.9-4.48,117.91,4.17,172.98-1c0-4.33,0-8.66,0-12.99
	c-38-2.34-80.32-0.34-119.99-1c1.47-37.181-5.39-70.87,11-88.99c16.18-17.89,52.65-23.04,85.99-25
	c68.22-4.01,131.54,5.82,142.98,52.99C374.53,72.32,371.041,99.841,371.041,123.791z M183.07,83.801c30.26-0.73,28.19-52.7-6-44.99
	C150.65,44.761,157.24,84.421,183.07,83.801z"/>
</svg>
