<?xml version="1.0" encoding="utf-8"?>
<!-- Generator: Adobe Illustrator 15.1.0, SVG Export Plug-In  -->
<!DOCTYPE svg PUBLIC "-//W3C//DTD SVG 1.1//EN" "http://www.w3.org/Graphics/SVG/1.1/DTD/svg11.dtd" [
	<!ENTITY ns_flows "http://ns.adobe.com/Flows/1.0/">
]>
<svg version="1.1"
	 xmlns="http://www.w3.org/2000/svg" xmlns:xlink="http://www.w3.org/1999/xlink" xmlns:a="http://ns.adobe.com/AdobeSVGViewerExtensions/3.0/"
	 x="0px" y="0px" width="385px" height="512px" viewBox="0 0 385 512" enable-background="new 0 0 385 512" xml:space="preserve">
<defs>
</defs>
<path fill-rule="evenodd" clip-rule="evenodd" fill="#FFFFFF" d="M24.683,0c89.334,0,178.666,0,268,0
	c21.066,13.777,49.799,43.799,71,65c7.446,7.446,17.882,17.043,20,25c3.351,12.589,1,32.679,1,51c0,100.221,0,204.073,0,308
	c0,33.321,2.601,55.251-22,63c-113.334,0-226.664,0-340,0c-28.72-8.2-22-42.222-22-79c0-118.865,0-236.746,0-354
	C0.683,40.703-5.282,5.328,24.683,0z M23.683,22c-3.329,151.939-3.323,317.106,0,468c110.337,1.666,227.664,1.666,338,0
	c4.641-120.137,0.683-258.173,2-383c-14.419,0-26.845,0-44,0c-11.292,0-34.052,3.923-40-4c-5.672-7.556-2-27.751-2-40
	c0-15.532,0-28.817,0-42C193.344,21.661,106.356,19.674,23.683,22z M299.683,86c17.667,0,35.333,0,53,0
	c-14.023-17.311-35.004-36.328-53-53C299.683,50.667,299.683,68.333,299.683,86z"/>
<path fill-rule="evenodd" clip-rule="evenodd" fill="#FFFFFF" d="M158.683,267c-3.59-9.79-7.294-16.357-11-25
	c-3.422-7.979-9.652-14.938-10-25c-0.192-5.572,2.436-10.593,3-16c2.709-25.934-0.07-43.413,14-58c16.455-17.061,57.459-19.43,76,0
	c12.717,13.326,12.063,33.292,14,57c0.598,7.313,2.904,14.018,2,21c-0.893,6.891-5.792,15.375-9,23c-2.139,5.082-11.296,14.91-11,21
	c0.464,9.545,21.874,17.112,32,22c12.241,5.908,32.683,10.841,38,20c9.426,16.236,3.271,49.187-9,54c-9.853,3.865-32.923,1-47,1
	c-34.749,0-60.418,0-96,0c-17.194,0-36.733,2.908-47-1c-14.846-5.652-15.179-42.304-10-53c4.8-9.915,24.986-14.82,36-20
	C137.171,281.656,150.015,276.145,158.683,267z M215.683,156c-11.594-10.348-39.392-8.22-48,2c-12.822,15.222,0.454,42.72-10,59
	c7.371,6.628,7.466,15.995,12,25c5.261,10.448,13.626,14.098,10,31c-15.904,23.763-46.789,32.545-73,46
	c0.56,7.106-1.188,16.521,1,22c56.432-1.143,113.113,0.9,170-1c1.147-6.411,1.688-15.704,0-22c-11.92-4.411-25.559-10.96-40-19
	c-15.434-8.593-36.889-16.779-32-43c10.265-10.401,13.072-28.262,22-40C216.89,200.716,228.595,167.524,215.683,156z"/>
<path fill-rule="evenodd" clip-rule="evenodd" fill="#FFFFFF" d="M91.683,406c0.472-0.217-0.075-0.921,1-1
	c45.969-3.376,106.362,0,159,0c16.832,0,43.395-3.07,45,8c2.504,17.271-25.923,13-45,13c-40.072,0-74.757,0-116,0
	c-16.888,0-47.639,3.736-50-8C84.377,411.511,87.946,407.717,91.683,406z"/>
</svg>
